<?xml version="1.0" standalone="no"?><!DOCTYPE svg PUBLIC "-//W3C//DTD SVG 1.1//EN" "http://www.w3.org/Graphics/SVG/1.1/DTD/svg11.dtd"><svg t="1615289198195" class="icon" viewBox="0 0 1024 1024" version="1.1" xmlns="http://www.w3.org/2000/svg" p-id="2158" xmlns:xlink="http://www.w3.org/1999/xlink" width="128" height="128"><defs><style type="text/css"></style></defs><path d="M512 63.788313c-247.250276 0-448.211687 200.396913-448.211687 448.211687 0 247.250276 200.396913 448.211687 448.211687 448.211687s448.211687-200.396913 448.211687-448.211687c0-247.250276-200.961411-448.211687-448.211687-448.211687z m19.192944 692.074973c-9.031974 7.902977-19.192944 12.418964-31.611908 12.418963-12.418964 0-22.579934-4.515987-31.611907-12.418963-9.031974-9.031974-12.418964-19.192944-12.418964-31.611908 0-12.418964 3.38699-22.579934 12.418964-30.482911 9.031974-9.031974 19.192944-12.418964 31.611907-12.418963 12.418964 0 23.708931 3.38699 32.176406 12.418963 7.902977 7.902977 12.418964 18.063947 12.418964 30.482911 0.564498 12.983462-3.951488 23.144432-12.983462 31.611908z m105.561191-318.941566c-7.338479 9.031974-27.095921 27.660419-59.272327 56.449835-16.370452 14.112459-27.095921 27.095921-34.434399 40.079382-9.596472 16.370452-14.112459 33.869901-14.112459 53.627343v16.93495H470.791621v-16.93495c0-24.273429 4.515987-45.159868 12.983462-63.788313 10.16097-22.015436 34.434399-49.675854 73.949283-84.674752 11.854465-11.854465 20.32194-20.32194 24.837927-26.531422 14.676957-18.063947 22.015436-37.256891 22.015436-57.578832 0-29.353914-9.031974-51.933848-24.837927-68.304299-16.93495-17.499449-41.208379-25.402426-71.69129-25.402426-36.692393 0-63.788313 11.854465-81.287762 36.127894-16.370452 20.32194-24.273429 48.546858-24.273429 84.110254H344.343991c0-51.36935 14.112459-92.01323 43.466373-123.06064 29.353914-32.176406 70.562293-48.546858 123.060639-48.546858 46.853363 0 84.110254 12.418964 112.89967 38.950386 27.095921 24.837927 41.208379 59.272326 41.208379 103.303198-0.564498 32.176406-9.596472 60.965821-28.224917 85.23925z" p-id="2159" fill="#D81E06"></path></svg>